<?xml version="1.0" encoding="UTF-8" standalone="no"?><svg xmlns="http://www.w3.org/2000/svg" xmlns:xlink="http://www.w3.org/1999/xlink" contentScriptType="application/ecmascript" contentStyleType="text/css" height="129px" preserveAspectRatio="none" style="width:264px;height:129px;" version="1.1" viewBox="0 0 264 129" width="264px" zoomAndPan="magnify"><defs><filter height="300%" id="falhg9u05n178" width="300%" x="-1" y="-1"><feGaussianBlur result="blurOut" stdDeviation="2.0"/><feColorMatrix in="blurOut" result="blurOut2" type="matrix" values="0 0 0 0 0 0 0 0 0 0 0 0 0 0 0 0 0 0 .4 0"/><feOffset dx="4.0" dy="4.0" in="blurOut2" result="blurOut3"/><feBlend in="SourceGraphic" in2="blurOut3" mode="normal"/></filter></defs><g><!--cluster de.thro.inf.prg3.a08.filtering--><polygon fill="#FFFFFF" filter="url(#falhg9u05n178)" points="14,16,216,16,223,41.0679,242,41.0679,242,117,14,117,14,16" style="stroke: #000000; stroke-width: 1.5;"/><line style="stroke: #000000; stroke-width: 1.5;" x1="14" x2="223" y1="41.0679" y2="41.0679"/><text fill="#000000" font-family="sans-serif" font-size="14" font-weight="bold" lengthAdjust="spacingAndGlyphs" textLength="196" x="18" y="32.9659">de.thro.inf.prg3.a08.filtering</text><!--class MealsFilterFactory--><rect fill="#FEFECE" filter="url(#falhg9u05n178)" height="62.9819" id="MealsFilterFactory" style="stroke: #A80036; stroke-width: 1.5;" width="212" x="22" y="46"/><ellipse cx="74.75" cy="62" fill="#A9DCDF" rx="11" ry="11" style="stroke: #A80036; stroke-width: 1.0;"/><path d="M77.7031,67.25 L76.8281,64.3594 L72.4063,64.3594 L71.5156,67.25 L68.75,67.25 L73.0313,55.0625 L76.1719,55.0625 L80.4844,67.25 L77.7031,67.25 Z M76.2188,62.2031 L75.3281,59.375 Q75.25,59.0938 75.1094,58.6484 Q74.9688,58.2031 74.8359,57.7422 Q74.7031,57.2813 74.6094,56.9531 Q74.5313,57.2813 74.3828,57.7891 Q74.2344,58.2969 74.1094,58.7422 Q73.9844,59.1875 73.9219,59.375 L73.0469,62.2031 L76.2188,62.2031 Z "/><text fill="#000000" font-family="sans-serif" font-size="12" font-style="italic" lengthAdjust="spacingAndGlyphs" textLength="98" x="95.25" y="66.656">MealsFilterFactory</text><line style="stroke: #A80036; stroke-width: 1.5;" x1="23" x2="233" y1="78" y2="78"/><line style="stroke: #A80036; stroke-width: 1.5;" x1="23" x2="233" y1="86" y2="86"/><ellipse cx="33" cy="98.9909" fill="#84BE84" rx="3" ry="3" style="stroke: #038048; stroke-width: 1.0;"/><text fill="#000000" font-family="sans-serif" font-size="11" lengthAdjust="spacingAndGlyphs" text-decoration="underline" textLength="186" x="42" y="101.7589">getStrategy(key: String): MealsFilter</text><line style="stroke: #000000; stroke-width: 1.0;" x1="42" x2="228" y1="103.7589" y2="103.7589"/><!--
@startuml FilteringFactory

package de.thro.inf.prg3.a08.filtering {
    abstract class MealsFilterFactory {
        +{static} getStrategy(key: String): MealsFilter
    }
}

@enduml

PlantUML version 1.2018.12(Sun Oct 21 12:15:15 CEST 2018)
(GPL source distribution)
Java Runtime: OpenJDK Runtime Environment
JVM: OpenJDK 64-Bit Server VM
Java Version: 1.8.0_192-b26
Operating System: Linux
OS Version: 4.19.4-arch1-1-ARCH
Default Encoding: UTF-8
Language: en
Country: US
--></g></svg>