<?xml version="1.0" encoding="UTF-8" standalone="no"?><svg xmlns="http://www.w3.org/2000/svg" xmlns:xlink="http://www.w3.org/1999/xlink" contentScriptType="application/ecmascript" contentStyleType="text/css" height="360px" preserveAspectRatio="none" style="width:498px;height:360px;" version="1.1" viewBox="0 0 498 360" width="498px" zoomAndPan="magnify"><defs><filter height="300%" id="f7v72245nqvco" width="300%" x="-1" y="-1"><feGaussianBlur result="blurOut" stdDeviation="2.0"/><feColorMatrix in="blurOut" result="blurOut2" type="matrix" values="0 0 0 0 0 0 0 0 0 0 0 0 0 0 0 0 0 0 .4 0"/><feOffset dx="4.0" dy="4.0" in="blurOut2" result="blurOut3"/><feBlend in="SourceGraphic" in2="blurOut3" mode="normal"/></filter></defs><g><!--cluster de.thro.inf.prg3.a08.filtering--><polygon fill="#FFFFFF" filter="url(#f7v72245nqvco)" points="14,16,216,16,223,41.0679,476,41.0679,476,348,14,348,14,16" style="stroke: #000000; stroke-width: 1.5;"/><line style="stroke: #000000; stroke-width: 1.5;" x1="14" x2="223" y1="41.0679" y2="41.0679"/><text fill="#000000" font-family="sans-serif" font-size="14" font-weight="bold" lengthAdjust="spacingAndGlyphs" textLength="196" x="18" y="32.9659">de.thro.inf.prg3.a08.filtering</text><!--class MealsFilter--><rect fill="#FEFECE" filter="url(#f7v72245nqvco)" height="62.9819" id="MealsFilter" style="stroke: #A80036; stroke-width: 1.5;" width="195" x="94.5" y="46"/><ellipse cx="158.75" cy="62" fill="#B4A7E5" rx="11" ry="11" style="stroke: #A80036; stroke-width: 1.0;"/><path d="M161.3125,68.5 L155.7969,68.5 L155.7969,67.0313 L157.2656,66.3594 L157.2656,58.5 L155.7969,57.8281 L155.7969,56.3594 L161.3125,56.3594 L161.3125,57.8281 L159.8438,58.5 L159.8438,66.3594 L161.3125,67.0313 L161.3125,68.5 Z "/><text fill="#000000" font-family="sans-serif" font-size="12" font-style="italic" lengthAdjust="spacingAndGlyphs" textLength="58" x="179.25" y="66.656">MealsFilter</text><line style="stroke: #A80036; stroke-width: 1.5;" x1="95.5" x2="288.5" y1="78" y2="78"/><line style="stroke: #A80036; stroke-width: 1.5;" x1="95.5" x2="288.5" y1="86" y2="86"/><text fill="#000000" font-family="sans-serif" font-size="11" lengthAdjust="spacingAndGlyphs" textLength="183" x="100.5" y="101.7589">filter(meals: List&lt;Meal&gt;): List&lt;Meal&gt;</text><!--class AllMealsStrategy--><rect fill="#FEFECE" filter="url(#f7v72245nqvco)" height="48" id="AllMealsStrategy" style="stroke: #A80036; stroke-width: 1.5;" width="127" x="22.5" y="176.5"/><ellipse cx="37.5" cy="192.5" fill="#ADD1B2" rx="11" ry="11" style="stroke: #A80036; stroke-width: 1.0;"/><path d="M37.1875,188.8281 Q35.7031,188.8281 34.9219,189.9375 Q34.1406,191.0469 34.1406,192.9688 Q34.1406,194.9063 34.8594,195.9688 Q35.5781,197.0313 37.1875,197.0313 Q37.9219,197.0313 38.6641,196.8594 Q39.4063,196.6875 40.2813,196.375 L40.2813,198.5469 Q39.4688,198.8594 38.6875,199.0156 Q37.9063,199.1719 36.9375,199.1719 Q35.0781,199.1719 33.8594,198.3984 Q32.6406,197.625 32.0625,196.2188 Q31.4844,194.8125 31.4844,192.9531 Q31.4844,191.1094 32.1484,189.7031 Q32.8125,188.2969 34.0781,187.4922 Q35.3438,186.6875 37.1875,186.6875 Q38.0781,186.6875 38.9922,186.9219 Q39.9063,187.1563 40.7344,187.5469 L39.9063,189.6406 Q39.2188,189.3125 38.5313,189.0703 Q37.8438,188.8281 37.1875,188.8281 Z "/><text fill="#000000" font-family="sans-serif" font-size="12" lengthAdjust="spacingAndGlyphs" textLength="95" x="51.5" y="197.156">AllMealsStrategy</text><line style="stroke: #A80036; stroke-width: 1.5;" x1="23.5" x2="148.5" y1="208.5" y2="208.5"/><line style="stroke: #A80036; stroke-width: 1.5;" x1="23.5" x2="148.5" y1="216.5" y2="216.5"/><!--class FilterBase--><rect fill="#FEFECE" filter="url(#f7v72245nqvco)" height="62.9819" id="FilterBase" style="stroke: #A80036; stroke-width: 1.5;" width="160" x="185" y="169"/><ellipse cx="234.75" cy="185" fill="#A9DCDF" rx="11" ry="11" style="stroke: #A80036; stroke-width: 1.0;"/><path d="M237.7031,190.25 L236.8281,187.3594 L232.4063,187.3594 L231.5156,190.25 L228.75,190.25 L233.0313,178.0625 L236.1719,178.0625 L240.4844,190.25 L237.7031,190.25 Z M236.2188,185.2031 L235.3281,182.375 Q235.25,182.0938 235.1094,181.6484 Q234.9688,181.2031 234.8359,180.7422 Q234.7031,180.2813 234.6094,179.9531 Q234.5313,180.2813 234.3828,180.7891 Q234.2344,181.2969 234.1094,181.7422 Q233.9844,182.1875 233.9219,182.375 L233.0469,185.2031 L236.2188,185.2031 Z "/><text fill="#000000" font-family="sans-serif" font-size="12" font-style="italic" lengthAdjust="spacingAndGlyphs" textLength="52" x="255.25" y="189.656">FilterBase</text><line style="stroke: #A80036; stroke-width: 1.5;" x1="186" x2="344" y1="201" y2="201"/><line style="stroke: #A80036; stroke-width: 1.5;" x1="186" x2="344" y1="209" y2="209"/><polygon fill="#FFFF44" points="196,216.9909,200,220.9909,196,224.9909,192,220.9909" style="stroke: #B38D22; stroke-width: 1.0;"/><text fill="#000000" font-family="sans-serif" font-size="11" lengthAdjust="spacingAndGlyphs" textLength="134" x="205" y="224.7589">include(m: Meal): boolean</text><!--class VegetarianStrategy--><rect fill="#FEFECE" filter="url(#f7v72245nqvco)" height="48" id="VegetarianStrategy" style="stroke: #A80036; stroke-width: 1.5;" width="140" x="22" y="292"/><ellipse cx="37" cy="308" fill="#ADD1B2" rx="11" ry="11" style="stroke: #A80036; stroke-width: 1.0;"/><path d="M36.6875,304.3281 Q35.2031,304.3281 34.4219,305.4375 Q33.6406,306.5469 33.6406,308.4688 Q33.6406,310.4063 34.3594,311.4688 Q35.0781,312.5313 36.6875,312.5313 Q37.4219,312.5313 38.1641,312.3594 Q38.9063,312.1875 39.7813,311.875 L39.7813,314.0469 Q38.9688,314.3594 38.1875,314.5156 Q37.4063,314.6719 36.4375,314.6719 Q34.5781,314.6719 33.3594,313.8984 Q32.1406,313.125 31.5625,311.7188 Q30.9844,310.3125 30.9844,308.4531 Q30.9844,306.6094 31.6484,305.2031 Q32.3125,303.7969 33.5781,302.9922 Q34.8438,302.1875 36.6875,302.1875 Q37.5781,302.1875 38.4922,302.4219 Q39.4063,302.6563 40.2344,303.0469 L39.4063,305.1406 Q38.7188,304.8125 38.0313,304.5703 Q37.3438,304.3281 36.6875,304.3281 Z "/><text fill="#000000" font-family="sans-serif" font-size="12" lengthAdjust="spacingAndGlyphs" textLength="108" x="51" y="312.656">VegetarianStrategy</text><line style="stroke: #A80036; stroke-width: 1.5;" x1="23" x2="161" y1="324" y2="324"/><line style="stroke: #A80036; stroke-width: 1.5;" x1="23" x2="161" y1="332" y2="332"/><!--class NoPorkStrategy--><rect fill="#FEFECE" filter="url(#f7v72245nqvco)" height="48" id="NoPorkStrategy" style="stroke: #A80036; stroke-width: 1.5;" width="120" x="197" y="292"/><ellipse cx="212" cy="308" fill="#ADD1B2" rx="11" ry="11" style="stroke: #A80036; stroke-width: 1.0;"/><path d="M211.6875,304.3281 Q210.2031,304.3281 209.4219,305.4375 Q208.6406,306.5469 208.6406,308.4688 Q208.6406,310.4063 209.3594,311.4688 Q210.0781,312.5313 211.6875,312.5313 Q212.4219,312.5313 213.1641,312.3594 Q213.9063,312.1875 214.7813,311.875 L214.7813,314.0469 Q213.9688,314.3594 213.1875,314.5156 Q212.4063,314.6719 211.4375,314.6719 Q209.5781,314.6719 208.3594,313.8984 Q207.1406,313.125 206.5625,311.7188 Q205.9844,310.3125 205.9844,308.4531 Q205.9844,306.6094 206.6484,305.2031 Q207.3125,303.7969 208.5781,302.9922 Q209.8438,302.1875 211.6875,302.1875 Q212.5781,302.1875 213.4922,302.4219 Q214.4063,302.6563 215.2344,303.0469 L214.4063,305.1406 Q213.7188,304.8125 213.0313,304.5703 Q212.3438,304.3281 211.6875,304.3281 Z "/><text fill="#000000" font-family="sans-serif" font-size="12" lengthAdjust="spacingAndGlyphs" textLength="88" x="226" y="312.656">NoPorkStrategy</text><line style="stroke: #A80036; stroke-width: 1.5;" x1="198" x2="316" y1="324" y2="324"/><line style="stroke: #A80036; stroke-width: 1.5;" x1="198" x2="316" y1="332" y2="332"/><!--class NoSoyStrategy--><rect fill="#FEFECE" filter="url(#f7v72245nqvco)" height="48" id="NoSoyStrategy" style="stroke: #A80036; stroke-width: 1.5;" width="115" x="352.5" y="292"/><ellipse cx="367.5" cy="308" fill="#ADD1B2" rx="11" ry="11" style="stroke: #A80036; stroke-width: 1.0;"/><path d="M367.1875,304.3281 Q365.7031,304.3281 364.9219,305.4375 Q364.1406,306.5469 364.1406,308.4688 Q364.1406,310.4063 364.8594,311.4688 Q365.5781,312.5313 367.1875,312.5313 Q367.9219,312.5313 368.6641,312.3594 Q369.4063,312.1875 370.2813,311.875 L370.2813,314.0469 Q369.4688,314.3594 368.6875,314.5156 Q367.9063,314.6719 366.9375,314.6719 Q365.0781,314.6719 363.8594,313.8984 Q362.6406,313.125 362.0625,311.7188 Q361.4844,310.3125 361.4844,308.4531 Q361.4844,306.6094 362.1484,305.2031 Q362.8125,303.7969 364.0781,302.9922 Q365.3438,302.1875 367.1875,302.1875 Q368.0781,302.1875 368.9922,302.4219 Q369.9063,302.6563 370.7344,303.0469 L369.9063,305.1406 Q369.2188,304.8125 368.5313,304.5703 Q367.8438,304.3281 367.1875,304.3281 Z "/><text fill="#000000" font-family="sans-serif" font-size="12" lengthAdjust="spacingAndGlyphs" textLength="83" x="381.5" y="312.656">NoSoyStrategy</text><line style="stroke: #A80036; stroke-width: 1.5;" x1="353.5" x2="466.5" y1="324" y2="324"/><line style="stroke: #A80036; stroke-width: 1.5;" x1="353.5" x2="466.5" y1="332" y2="332"/><!--link MealsFilter to AllMealsStrategy--><path d="M151.5448,124.4432 C136.2975,142.136 119.5805,161.534 106.8453,176.3115 " fill="none" id="MealsFilter-AllMealsStrategy" style="stroke: #A80036; stroke-width: 1.0; stroke-dasharray: 7.0,7.0;"/><polygon fill="none" points="146.3434,119.7561,164.7024,109.1756,156.9486,128.8956,146.3434,119.7561" style="stroke: #A80036; stroke-width: 1.0;"/><!--link MealsFilter to FilterBase--><path d="M221.0953,126.5237 C229.5737,140.8091 238.6085,156.0322 246.2644,168.9318 " fill="none" id="MealsFilter-FilterBase" style="stroke: #A80036; stroke-width: 1.0; stroke-dasharray: 7.0,7.0;"/><polygon fill="none" points="214.9872,129.9472,210.7993,109.1756,227.0266,122.8019,214.9872,129.9472" style="stroke: #A80036; stroke-width: 1.0;"/><!--link FilterBase to VegetarianStrategy--><path d="M200.8036,243.3595 C176.1978,259.787 149.0079,277.9398 127.9639,291.9894 " fill="none" id="FilterBase-VegetarianStrategy" style="stroke: #A80036; stroke-width: 1.0;"/><polygon fill="none" points="197.2066,237.3443,217.727,232.0609,204.9802,248.9878,197.2066,237.3443" style="stroke: #A80036; stroke-width: 1.0;"/><!--link FilterBase to NoPorkStrategy--><path d="M261.4172,252.2263 C260.4618,266.0205 259.4742,280.2782 258.6758,291.805 " fill="none" id="FilterBase-NoPorkStrategy" style="stroke: #A80036; stroke-width: 1.0;"/><polygon fill="none" points="254.4486,251.5294,262.814,232.0609,268.4152,252.4968,254.4486,251.5294" style="stroke: #A80036; stroke-width: 1.0;"/><!--link FilterBase to NoSoyStrategy--><path d="M320.5464,244.7456 C340.6132,260.7298 362.5156,278.1762 379.6253,291.805 " fill="none" id="FilterBase-NoSoyStrategy" style="stroke: #A80036; stroke-width: 1.0;"/><polygon fill="none" points="315.9042,249.9972,304.6219,232.0609,324.6269,239.0466,315.9042,249.9972" style="stroke: #A80036; stroke-width: 1.0;"/><!--
@startuml FilteringStrategies

package de.thro.inf.prg3.a08.filtering {

    interface MealsFilter {
        filter(meals: List<Meal>): List<Meal>
    }

    class AllMealsStrategy implements MealsFilter {

    }

    abstract class FilterBase implements MealsFilter {
        #include(m: Meal): boolean
    }

    class VegetarianStrategy extends FilterBase {

    }

    class NoPorkStrategy extends FilterBase {

    }

    class NoSoyStrategy extends FilterBase {

    }
}

@enduml

PlantUML version 1.2018.12(Sun Oct 21 12:15:15 CEST 2018)
(GPL source distribution)
Java Runtime: OpenJDK Runtime Environment
JVM: OpenJDK 64-Bit Server VM
Java Version: 1.8.0_192-b26
Operating System: Linux
OS Version: 4.19.4-arch1-1-ARCH
Default Encoding: UTF-8
Language: en
Country: US
--></g></svg>