<?xml version="1.0" encoding="UTF-8" standalone="no"?><svg xmlns="http://www.w3.org/2000/svg" xmlns:xlink="http://www.w3.org/1999/xlink" contentScriptType="application/ecmascript" contentStyleType="text/css" height="228px" preserveAspectRatio="none" style="width:555px;height:228px;" version="1.1" viewBox="0 0 555 228" width="555px" zoomAndPan="magnify"><defs><filter height="300%" id="f75mctxohgqot" width="300%" x="-1" y="-1"><feGaussianBlur result="blurOut" stdDeviation="2.0"/><feColorMatrix in="blurOut" result="blurOut2" type="matrix" values="0 0 0 0 0 0 0 0 0 0 0 0 0 0 0 0 0 0 .4 0"/><feOffset dx="4.0" dy="4.0" in="blurOut2" result="blurOut3"/><feBlend in="SourceGraphic" in2="blurOut3" mode="normal"/></filter></defs><g><!--cluster de.thro.inf.prg3.a08--><polygon fill="#FFFFFF" filter="url(#f75mctxohgqot)" points="14,16,157,16,164,41.0679,533,41.0679,533,216,14,216,14,16" style="stroke: #000000; stroke-width: 1.5;"/><line style="stroke: #000000; stroke-width: 1.5;" x1="14" x2="164" y1="41.0679" y2="41.0679"/><text fill="#000000" font-family="sans-serif" font-size="14" font-weight="bold" lengthAdjust="spacingAndGlyphs" textLength="137" x="18" y="32.9659">de.thro.inf.prg3.a08</text><!--cluster services--><polygon fill="#FFFFFF" filter="url(#f75mctxohgqot)" points="22,46,83,46,90,71.0679,255,71.0679,255,208,22,208,22,46" style="stroke: #000000; stroke-width: 1.5;"/><line style="stroke: #000000; stroke-width: 1.5;" x1="22" x2="90" y1="71.0679" y2="71.0679"/><text fill="#000000" font-family="sans-serif" font-size="14" font-weight="bold" lengthAdjust="spacingAndGlyphs" textLength="55" x="26" y="62.9659">services</text><!--class OpenMensaAPI--><rect fill="#FEFECE" filter="url(#f75mctxohgqot)" height="62.9819" id="OpenMensaAPI" style="stroke: #A80036; stroke-width: 1.5;" width="218" x="307" y="106.5"/><ellipse cx="370.75" cy="122.5" fill="#B4A7E5" rx="11" ry="11" style="stroke: #A80036; stroke-width: 1.0;"/><path d="M373.3125,129 L367.7969,129 L367.7969,127.5313 L369.2656,126.8594 L369.2656,119 L367.7969,118.3281 L367.7969,116.8594 L373.3125,116.8594 L373.3125,118.3281 L371.8438,119 L371.8438,126.8594 L373.3125,127.5313 L373.3125,129 Z "/><text fill="#000000" font-family="sans-serif" font-size="12" font-style="italic" lengthAdjust="spacingAndGlyphs" textLength="82" x="391.25" y="127.156">OpenMensaAPI</text><line style="stroke: #A80036; stroke-width: 1.5;" x1="308" x2="524" y1="138.5" y2="138.5"/><line style="stroke: #A80036; stroke-width: 1.5;" x1="308" x2="524" y1="146.5" y2="146.5"/><text fill="#000000" font-family="sans-serif" font-size="11" lengthAdjust="spacingAndGlyphs" textLength="206" x="313" y="162.2589">getMeals(date: String): Call&lt;List&lt;Meal&gt;&gt;</text><!--class OpenMensaAPIService--><rect fill="#FEFECE" filter="url(#f75mctxohgqot)" height="122.9094" id="OpenMensaAPIService" style="stroke: #A80036; stroke-width: 1.5;" width="217" x="30" y="76.5"/><ellipse cx="70.65" cy="92.5" fill="#ADD1B2" rx="11" ry="11" style="stroke: #A80036; stroke-width: 1.0;"/><path d="M70.3375,88.8281 Q68.8531,88.8281 68.0719,89.9375 Q67.2906,91.0469 67.2906,92.9688 Q67.2906,94.9063 68.0094,95.9688 Q68.7281,97.0313 70.3375,97.0313 Q71.0719,97.0313 71.8141,96.8594 Q72.5563,96.6875 73.4313,96.375 L73.4313,98.5469 Q72.6188,98.8594 71.8375,99.0156 Q71.0563,99.1719 70.0875,99.1719 Q68.2281,99.1719 67.0094,98.3984 Q65.7906,97.625 65.2125,96.2188 Q64.6344,94.8125 64.6344,92.9531 Q64.6344,91.1094 65.2984,89.7031 Q65.9625,88.2969 67.2281,87.4922 Q68.4938,86.6875 70.3375,86.6875 Q71.2281,86.6875 72.1422,86.9219 Q73.0563,87.1563 73.8844,87.5469 L73.0563,89.6406 Q72.3688,89.3125 71.6813,89.0703 Q70.9938,88.8281 70.3375,88.8281 Z "/><text fill="#000000" font-family="sans-serif" font-size="12" lengthAdjust="spacingAndGlyphs" textLength="128" x="90.35" y="97.156">OpenMensaAPIService</text><line style="stroke: #A80036; stroke-width: 1.5;" x1="31" x2="246" y1="108.5" y2="108.5"/><rect fill="none" height="6" style="stroke: #C82930; stroke-width: 1.0;" width="6" x="38" y="118.4909"/><text fill="#000000" font-family="sans-serif" font-size="11" lengthAdjust="spacingAndGlyphs" text-decoration="underline" textLength="167" x="50" y="124.2589">instance: OpenMensaAPIService</text><line style="stroke: #000000; stroke-width: 1.0;" x1="50" x2="217" y1="126.2589" y2="126.2589"/><rect fill="none" height="6" style="stroke: #C82930; stroke-width: 1.0;" width="6" x="38" y="133.4728"/><text fill="#000000" font-family="sans-serif" font-size="11" lengthAdjust="spacingAndGlyphs" textLength="182" x="50" y="139.2408">mensaApiInstance: OpenMensaAPI</text><line style="stroke: #A80036; stroke-width: 1.5;" x1="31" x2="246" y1="146.4638" y2="146.4638"/><rect fill="#F24D5C" height="6" style="stroke: #C82930; stroke-width: 1.0;" width="6" x="38" y="156.4547"/><text fill="#000000" font-family="sans-serif" font-size="11" lengthAdjust="spacingAndGlyphs" textLength="124" x="50" y="162.2227">OpenMensaAPIService()</text><ellipse cx="41" cy="174.4366" fill="#84BE84" rx="3" ry="3" style="stroke: #038048; stroke-width: 1.0;"/><text fill="#000000" font-family="sans-serif" font-size="11" lengthAdjust="spacingAndGlyphs" text-decoration="underline" textLength="191" x="50" y="177.2046">getInstance(): OpenMensaAPIService</text><line style="stroke: #000000; stroke-width: 1.0;" x1="50" x2="241" y1="179.2046" y2="179.2046"/><ellipse cx="41" cy="189.4185" fill="#84BE84" rx="3" ry="3" style="stroke: #038048; stroke-width: 1.0;"/><text fill="#000000" font-family="sans-serif" font-size="11" lengthAdjust="spacingAndGlyphs" textLength="127" x="50" y="192.1865">getApi(): OpenMensaAPI</text><!--link OpenMensaAPIService to OpenMensaAPI--><path d="M260.8014,138 C276.1774,138 291.8267,138 306.9796,138 " fill="none" id="OpenMensaAPIService-OpenMensaAPI" style="stroke: #A80036; stroke-width: 1.0;"/><polygon fill="#FFFFFF" points="247.3789,138,253.3789,142,259.3789,138,253.3789,134,247.3789,138" style="stroke: #A80036; stroke-width: 1.0;"/><!--
@startuml OpenMensaAPIService

left to right direction

package de.thro.inf.prg3.a08 {

    interface OpenMensaAPI {
        getMeals(date: String): Call<List<Meal>>
    }

    package services {
        class OpenMensaAPIService {
            -{static} instance: OpenMensaAPIService
            -mensaApiInstance: OpenMensaAPI
            -OpenMensaAPIService()
            +{static} getInstance(): OpenMensaAPIService
            +getApi(): OpenMensaAPI
        }
    }

    OpenMensaAPIService o- - OpenMensaAPI
}

@enduml

PlantUML version 1.2018.12(Sun Oct 21 12:15:15 CEST 2018)
(GPL source distribution)
Java Runtime: OpenJDK Runtime Environment
JVM: OpenJDK 64-Bit Server VM
Java Version: 1.8.0_192-b26
Operating System: Linux
OS Version: 4.19.4-arch1-1-ARCH
Default Encoding: UTF-8
Language: en
Country: US
--></g></svg>